<svg width="150" height="29" viewBox="0 0 150 29" fill="none" xmlns="http://www.w3.org/2000/svg">
<g clip-path="url(#clip0)">
<path d="M107.428 20.1895V18.1756C106.515 18.9752 104.614 19.0144 102.94 19.3144C101.266 19.657 99.7487 20.2275 99.7487 22.2056C99.7487 24.2179 101.303 24.7141 103.053 24.7141C107.276 24.7137 107.428 21.3681 107.428 20.1895ZM37.5454 15.8561H46.3288C45.8343 13.1168 44.6558 11.6729 42.0316 11.6729C38.6088 11.6729 37.6214 14.3333 37.5454 15.8561ZM56.9092 15.8561H65.6943C65.198 13.1168 64.0212 11.6729 61.3954 11.6729C57.9721 11.6729 56.9852 14.3333 56.9092 15.8561ZM95.1849 15.0586H89.9004C89.5607 12.8514 88.1501 11.6733 85.9083 11.6733C82.4504 11.6733 81.3048 15.1742 81.3048 18.0621C81.3048 20.8739 82.4107 24.258 85.7914 24.258C88.3033 24.258 89.7455 22.6609 90.0915 20.2676H94.6819C95.6035 17.6042 98.3246 16.8359 101.039 16.4633C104.349 15.9704 107.428 16.0827 107.428 13.8771C107.428 11.5615 105.831 11.2167 103.927 11.2167C101.877 11.2167 100.545 12.9261 100.357 15.054L95.1849 15.0586ZM149.969 19.2748H135.788C135.937 22.6997 137.612 24.2576 140.614 24.2576C142.78 24.2576 144.53 22.9276 144.873 21.7128H149.628C148.104 26.3462 144.873 28.3273 140.426 28.3273C135.633 28.3273 132.244 25.7774 130.96 21.8052C130.774 26.7218 126.383 28.3273 121.994 28.3273C117.683 28.3273 113.474 26.8045 112.828 22.247V23.4221C112.828 25.2087 113.019 26.9956 113.513 27.7931H108.035C107.845 27.1863 107.695 26.5403 107.656 25.8943C105.948 27.6809 103.436 28.3273 101.039 28.3273C97.6309 28.3273 94.8587 26.7648 94.4102 23.4154C92.9135 26.6129 89.8379 28.3273 85.8311 28.3273C80.7824 28.3273 77.1431 25.2977 76.1692 20.7617V27.7931H70.7695V19.2748H56.9092C57.059 22.6997 58.7338 24.2576 61.7402 24.2576C63.906 24.2576 65.6546 22.9276 65.996 21.7128H70.7497C69.2285 26.3462 65.996 28.3273 61.5473 28.3273C55.7982 28.3273 52.0796 24.6648 51.569 19.2752H37.5454C37.6952 22.7002 39.3717 24.258 42.3747 24.258C44.5406 24.258 46.2908 22.928 46.6339 21.7132H51.3876C49.8664 26.3467 46.6339 28.3277 42.184 28.3277C35.9868 28.3277 32.1462 24.0685 32.1462 17.9832C32.1462 12.0923 36.2142 7.60399 42.184 7.60399C47.7668 7.60399 50.9428 11.5184 51.6201 16.3249C52.3091 11.2712 56.1527 7.60399 61.5473 7.60399C66.6766 7.60399 69.7703 10.907 70.7691 15.1696V0.649384H76.1688V15.5312C77.1051 10.837 80.5465 7.60315 85.9462 7.60315C90.2299 7.60315 94.1857 9.67999 95.0364 13.9472C95.7039 8.76351 100.065 7.60315 104.199 7.60315C108.113 7.60315 112.828 8.47827 112.828 13.1957V21.4073H117.883C117.922 23.7626 119.9 24.7137 122.031 24.7137C123.586 24.7137 125.565 24.1069 125.565 22.2052C125.565 20.5685 123.322 19.998 119.443 19.1642C116.325 18.4802 113.208 17.3777 113.208 13.916C113.208 8.89854 117.543 7.60315 121.761 7.60315C126.063 7.60315 130.014 9.04875 130.433 13.8763H125.3C125.15 11.7881 123.548 11.2159 121.615 11.2159C120.395 11.2159 118.608 11.4484 118.608 13.0421C118.608 14.9822 121.648 15.2443 124.732 15.9696C127.098 16.5101 129.428 17.2865 130.441 19.1904C130.401 18.7946 130.388 18.3941 130.388 17.9823C130.388 12.0914 134.456 7.60315 140.426 7.60315C147.118 7.60315 150.348 13.2303 149.969 19.2748ZM135.788 15.8561H144.568C144.073 13.1168 142.898 11.6729 140.274 11.6729C136.851 11.6729 135.864 14.3333 135.788 15.8561ZM29.0819 2.24141V8.13734H33.0344V11.2674H29.0819V21.4816C29.0819 23.3044 29.5368 23.7626 31.3613 23.7626C31.9318 23.7626 32.4639 23.723 33.0344 23.6124V27.8319C32.1213 27.9851 30.9444 28.0197 29.8782 28.0197C26.5701 28.0197 23.6822 27.2581 23.6822 23.3436V11.2674H16.1631L16.1614 8.74368C15.9698 5.47693 13.6491 4.64147 10.7996 4.64147C8.89747 4.64147 6.69235 5.43769 6.69235 7.71876C6.69235 9.807 7.98605 10.0775 14.7917 11.8277C16.7681 12.3223 22.8531 13.575 22.8531 19.7326C22.8531 24.7137 18.937 28.437 11.5591 28.437C5.55139 28.437 -0.0757541 25.4703 -0.000224746 18.7798H5.7784C5.7784 22.3926 8.59198 23.8002 11.7878 23.8002C13.8778 23.8002 17.0719 23.1934 17.0719 20.4161C17.0719 17.4874 13.0039 16.9911 9.01182 15.9312C4.98007 14.8666 0.910769 13.3071 0.910769 8.21413C0.911613 2.66336 6.15943 0 11.0646 0C16.5432 0 21.5953 2.31103 21.9231 8.13734H23.6818V2.24141H29.0819Z" fill="#191919"/>
</g>
<defs>
<clipPath id="clip0">
<rect width="150" height="28.4374" fill="white"/>
</clipPath>
</defs>
</svg>
