<?xml version="1.0" encoding="utf-8"?>
<!-- Generator: Adobe Illustrator 24.0.2, SVG Export Plug-In . SVG Version: 6.00 Build 0)  -->
<svg version="1.1" id="Layer_1" xmlns="http://www.w3.org/2000/svg" xmlns:xlink="http://www.w3.org/1999/xlink" x="0px" y="0px"
	 viewBox="0 0 167.2 49.5" style="enable-background:new 0 0 167.2 49.5;" xml:space="preserve">
<style type="text/css">
	.st0{fill:#0069C8;}
</style>
<g>
	<g>
		<path class="st0" d="M22.4,20.2l-0.3-3.6c-0.2-2.4-0.3-4.6,0-7h-0.2c-0.5,2.4-1.5,4.6-2.6,7l-1.7,3.6H22.4z M17.6,0h12.7l5.1,31.8
			H23.2l-0.3-4h-8.6l-1.7,4H0.2L17.6,0z"/>
		<path class="st0" d="M48.6,24c1.7,0,3.1-1.3,3.4-3.2c0.4-2-0.5-3.3-2.2-3.3s-3.1,1.3-3.5,3.3C46,22.8,46.9,24,48.6,24 M50.9,28.8
			c-2.7,2.9-5.3,4.3-8.2,4.3c-5.1,0-8.3-4.7-6.9-12c1.4-7.7,6.1-12.4,11.4-12.4c2.8,0,4.9,1.2,6.3,3.7l0.6-3h10.6l-4.3,22.7H50.3
			L50.9,28.8z"/>
		<path class="st0" d="M66.5,9.5h10.7l-0.6,3.2c2.6-2.9,5.5-4.1,8.6-3.9l-2.1,11c-1.1-0.6-2-1-2.9-1c-2.8,0-4.7,1.6-5.2,4.4l-1.7,9
			H62.2L66.5,9.5z"/>
		<path class="st0" d="M99.9,20.9c0.4-1.9-0.5-3.1-2.1-3.1s-2.9,1.2-3.3,3.1S95,24,96.6,24S99.5,22.8,99.9,20.9 M104.5,29.9
			c-2.8,2.1-6.1,3.2-9.7,3.2s-6.4-1.1-8.5-3.2c-2.3-2.3-3.2-5.6-2.5-9c0.6-3.5,2.8-6.7,5.9-9c2.8-2.1,6.1-3.2,9.6-3.2
			c3.6,0,6.5,1.1,8.5,3.2c2.3,2.3,3.1,5.6,2.5,9C109.8,24.4,107.7,27.6,104.5,29.9"/>
		<path class="st0" d="M113.5,9.5h10.7l-0.6,3.2c2.4-2.6,4.9-3.9,7.8-3.9c4.8,0,7.3,3.1,6.3,8.2l-2.9,15.3h-11l2.2-11.5
			c0.4-2,0.2-3-1-3c-1.3,0-2.2,1-2.5,3l-2.2,11.5h-11.1L113.5,9.5z"/>
	</g>
	<polygon class="st0" points="142,12.9 138.9,12.9 141,3.8 146.6,3.8 	"/>
	<g>
		<path class="st0" d="M141.6,23.6c2.2,1.7,4.1,2.5,5.5,2.5c1.2,0,1.9-0.5,2.1-1.3c0.2-1.1-1-1-2.7-1.5c-4-1-5.6-3-4.9-6.4
			c0.9-4.6,5.7-8.1,12.3-8.1c3.1,0,6,0.6,8.4,1.8l-4,6.8c-1.8-1.3-3.3-2.1-4.5-2.1c-1,0-1.8,0.5-1.9,1.2c-0.2,1,1,1.1,3.3,1.6
			c4.1,1,5.9,3,5.3,6.3c-0.9,4.9-5.9,8.7-12.8,8.7c-3.7,0-7.1-0.9-10-2.5L141.6,23.6z"/>
		<path class="st0" d="M164.2,6.3h0.3c0.4,0,0.6-0.1,0.6-0.4c0-0.2-0.2-0.4-0.6-0.4c-0.1,0-0.3,0-0.3,0V6.3L164.2,6.3z M164.2,7.9
			h-0.6V5c0.2,0,0.5-0.1,0.9-0.1c0.5,0,0.8,0.1,1,0.2s0.3,0.3,0.3,0.6c0,0.3-0.2,0.6-0.5,0.7l0,0c0.3,0,0.4,0.3,0.5,0.7
			c0.1,0.4,0.1,0.6,0.2,0.7h-0.8c-0.1-0.1-0.1-0.4-0.2-0.7c0-0.3-0.2-0.4-0.5-0.4h-0.3L164.2,7.9L164.2,7.9z M164.6,4.3
			c-1.1,0-1.9,0.9-1.9,2.1s0.9,2.1,2,2.1s2-0.9,2-2.1C166.6,5.3,165.7,4.3,164.6,4.3L164.6,4.3z M164.6,3.8c1.4,0,2.6,1.2,2.6,2.6
			S166.1,9,164.6,9c-1.4,0-2.6-1.1-2.6-2.6C162.1,5,163.2,3.8,164.6,3.8L164.6,3.8z"/>
		<path class="st0" d="M164.93,35.84h0.23c0.3,0,0.45-0.08,0.45-0.3c0-0.15-0.15-0.3-0.45-0.3c-0.08,0-0.23,0-0.23,0V35.84
			L164.93,35.84z M164.93,37.04h-0.45v-2.19c0.15,0,0.38-0.08,0.68-0.08c0.38,0,0.6,0.08,0.76,0.15c0.15,0.08,0.23,0.23,0.23,0.45
			s-0.15,0.45-0.38,0.53l0,0c0.23,0,0.3,0.23,0.38,0.53s0.08,0.45,0.15,0.53h-0.6c-0.08-0.08-0.08-0.3-0.15-0.53
			c0-0.23-0.15-0.3-0.38-0.3h-0.23L164.93,37.04L164.93,37.04z M165.24,34.33c-0.83,0-1.43,0.68-1.43,1.59
			c0,0.91,0.68,1.59,1.51,1.59c0.83,0,1.51-0.68,1.51-1.59C166.75,35.08,166.07,34.33,165.24,34.33L165.24,34.33z M165.24,33.95
			c1.06,0,1.96,0.91,1.96,1.96s-0.83,1.96-1.96,1.96c-1.06,0-1.96-0.83-1.96-1.96C163.35,34.85,164.18,33.95,165.24,33.95
			L165.24,33.95z"/>
	</g>
	<g>
		<path class="st0" d="M6.4,45.5v1.7H0v-7.9h6.2V41h-4v1.4h3.5v1.7H2.3v1.4L6.4,45.5L6.4,45.5z"/>
		<path class="st0" d="M13.2,43.8v3.4h-2v-0.8c-0.3,0.6-0.9,0.9-1.8,0.9c-1.4,0-2.2-0.8-2.2-1.9s0.8-1.8,2.7-1.8h1.2
			c0-0.6-0.5-1-1.3-1c-0.6,0-1.2,0.2-1.7,0.5l-0.7-1.5c0.7-0.5,1.7-0.7,2.7-0.7C12.1,41,13.2,41.9,13.2,43.8z M11.1,45.2v-0.5h-0.9
			c-0.7,0-0.9,0.3-0.9,0.6c0,0.4,0.3,0.6,0.8,0.6C10.5,46,10.9,45.7,11.1,45.2z"/>
		<path class="st0" d="M14.1,46.7l0.6-1.5c0.6,0.4,1.4,0.6,2.1,0.6s1-0.2,1-0.4c0-0.8-3.6,0.1-3.6-2.3c0-1.2,1.1-2,3-2
			c0.9,0,1.8,0.2,2.4,0.5L19,43.1c-0.6-0.3-1.2-0.5-1.8-0.5c-0.7,0-1,0.2-1,0.4c0,0.8,3.6-0.1,3.6,2.4c0,1.1-1,2-3,2
			C15.8,47.3,14.7,47.1,14.1,46.7z"/>
		<path class="st0" d="M27.1,41.1l-2.6,6.4c-0.6,1.6-1.5,2-2.8,2c-0.6,0-1.4-0.2-1.8-0.6l0.7-1.5c0.3,0.2,0.6,0.4,0.9,0.4
			c0.4,0,0.7-0.2,0.8-0.5l-2.6-6.2h2.2l1.5,3.7l1.5-3.7L27.1,41.1L27.1,41.1z"/>
		<path class="st0" d="M26.9,46c0-0.8,0.6-1.3,1.3-1.3c0.7,0,1.3,0.5,1.3,1.3c0,0.7-0.6,1.3-1.3,1.3S26.9,46.8,26.9,46z"/>
		<path class="st0" d="M41.4,45c0,1.4-1.1,2.2-3.3,2.2h-4.3v-7.9h4c2.1,0,3.1,0.8,3.1,2.1c0,0.8-0.4,1.4-1.1,1.7
			C40.9,43.4,41.4,44.1,41.4,45z M36.1,40.9v1.5h1.5c0.7,0,1.1-0.3,1.1-0.8s-0.4-0.8-1.1-0.8L36.1,40.9L36.1,40.9z M39.2,44.8
			c0-0.5-0.4-0.8-1.2-0.8h-1.9v1.6H38C38.8,45.6,39.2,45.3,39.2,44.8z"/>
		<path class="st0" d="M48.7,44.7h-4.5c0.2,0.6,0.7,1,1.5,1c0.6,0,1-0.2,1.4-0.5l1.1,1.2c-0.6,0.7-1.4,1-2.6,1
			c-2.2,0-3.6-1.3-3.6-3.2c0-1.8,1.4-3.2,3.4-3.2c1.8,0,3.3,1.2,3.3,3.2C48.8,44.3,48.7,44.5,48.7,44.7z M44.2,43.6h2.5
			c-0.1-0.6-0.6-1.1-1.3-1.1C44.8,42.5,44.4,42.9,44.2,43.6z"/>
		<path class="st0" d="M55.3,43.8v3.4h-2v-0.8c-0.3,0.6-0.9,0.9-1.8,0.9c-1.5,0-2.3-0.8-2.3-1.9c0-1.1,0.8-1.8,2.7-1.8h1.3
			c0-0.6-0.5-1-1.3-1c-0.6,0-1.2,0.2-1.7,0.5l-0.7-1.5c0.7-0.5,1.7-0.7,2.7-0.7C54.2,41,55.3,41.9,55.3,43.8z M53.2,45.2v-0.5h-1
			c-0.7,0-0.9,0.3-0.9,0.6c0,0.4,0.3,0.6,0.8,0.6C52.6,46,53,45.7,53.2,45.2z"/>
		<path class="st0" d="M63.1,41.1v6.1h-2v-0.7c-0.5,0.5-1.1,0.8-1.8,0.8c-1.5,0-2.6-0.9-2.6-2.8v-3.4h2.1v3.1c0,0.9,0.4,1.3,1,1.3
			s1.2-0.4,1.2-1.4v-3L63.1,41.1L63.1,41.1z"/>
		<path class="st0" d="M68.7,47c-0.4,0.2-0.9,0.4-1.5,0.4c-1.6,0-2.5-0.8-2.5-2.3V43h-0.9v-1.6h0.9v-1.6h2.1v1.6h1.4V43h-1.4v2
			c0,0.5,0.3,0.7,0.6,0.7c0.2,0,0.5-0.1,0.7-0.2L68.7,47z"/>
		<path class="st0" d="M69.3,39.3c0-0.6,0.5-1.1,1.3-1.1s1.3,0.5,1.3,1.1c0,0.7-0.5,1.2-1.3,1.2C69.8,40.4,69.3,39.9,69.3,39.3z
			 M69.5,41.1h2.1v6.1h-2.1V41.1z"/>
		<path class="st0" d="M75.4,41.3h1.5v1.6h-1.4v4.3h-2.1v-4.3h-0.9v-1.6h0.9v-0.2c0-1.5,0.9-2.4,2.6-2.4c0.5,0,1.1,0.1,1.4,0.3
			l-0.5,1.5c-0.2-0.1-0.4-0.2-0.6-0.2c-0.5,0-0.7,0.3-0.7,0.8L75.4,41.3L75.4,41.3z"/>
		<path class="st0" d="M84.1,41.1v6.1h-2v-0.7c-0.5,0.5-1.1,0.8-1.8,0.8c-1.5,0-2.6-0.9-2.6-2.8v-3.4h2.1v3.1c0,0.9,0.4,1.3,1,1.3
			s1.2-0.4,1.2-1.4v-3L84.1,41.1L84.1,41.1z"/>
		<path class="st0" d="M85.5,38.8h2.1v8.4h-2.1V38.8z"/>
		<path class="st0" d="M88.6,46c0-0.8,0.6-1.3,1.3-1.3c0.7,0,1.3,0.5,1.3,1.3c0,0.7-0.6,1.3-1.3,1.3S88.6,46.8,88.6,46z"/>
		<path class="st0" d="M100.9,45.7h-3.3L97,47.2h-2.3l3.5-7.9h2.2l3.5,7.9h-2.3L100.9,45.7z M100.2,44l-1-2.5l-1,2.5H100.2z"/>
		<path class="st0" d="M106.7,41.3h1.5v1.6h-1.4v4.3h-2.1v-4.3h-0.9v-1.6h0.9v-0.2c0-1.5,0.9-2.4,2.6-2.4c0.5,0,1.1,0.1,1.4,0.3
			l-0.5,1.5c-0.2-0.1-0.4-0.2-0.6-0.2c-0.5,0-0.7,0.3-0.7,0.8v0.2C106.9,41.3,106.7,41.3,106.7,41.3z"/>
		<path class="st0" d="M111.3,41.3h1.5v1.6h-1.4v4.3h-2.2v-4.3h-0.9v-1.6h0.9v-0.2c0-1.5,0.9-2.4,2.6-2.4c0.5,0,1.1,0.1,1.4,0.3
			l-0.5,1.5c-0.2-0.1-0.4-0.2-0.6-0.2c-0.5,0-0.7,0.3-0.7,0.8v0.2C111.4,41.3,111.3,41.3,111.3,41.3z"/>
		<path class="st0" d="M113.1,44.1c0-1.8,1.5-3.2,3.5-3.2s3.5,1.3,3.5,3.2s-1.4,3.2-3.5,3.2C114.6,47.3,113.1,46,113.1,44.1z
			 M117.8,44.1c0-0.9-0.6-1.4-1.3-1.4c-0.7,0-1.3,0.5-1.3,1.4s0.6,1.5,1.3,1.5C117.3,45.6,117.8,45.1,117.8,44.1z"/>
		<path class="st0" d="M125.1,41v1.9c-0.2,0-0.3,0-0.5,0c-0.9,0-1.5,0.4-1.5,1.5v2.8H121v-6.1h2v0.7C123.5,41.3,124.2,41,125.1,41z"
			/>
		<path class="st0" d="M132.4,38.8v8.4h-2v-0.6c-0.4,0.5-1,0.7-1.8,0.7c-1.7,0-3-1.2-3-3.2c0-1.9,1.3-3.2,3-3.2
			c0.7,0,1.3,0.2,1.7,0.6v-2.8L132.4,38.8L132.4,38.8z M130.3,44.1c0-0.9-0.6-1.4-1.3-1.4s-1.3,0.5-1.3,1.4s0.6,1.5,1.3,1.5
			C129.8,45.6,130.3,45.1,130.3,44.1z"/>
		<path class="st0" d="M139.6,43.8v3.4h-2v-0.8c-0.3,0.6-0.9,0.9-1.8,0.9c-1.5,0-2.3-0.8-2.3-1.9c0-1.1,0.8-1.8,2.7-1.8h1.2
			c0-0.6-0.5-1-1.3-1c-0.6,0-1.2,0.2-1.7,0.5l-0.7-1.5c0.7-0.5,1.7-0.7,2.7-0.7C138.4,41,139.6,41.9,139.6,43.8z M137.4,45.2v-0.5
			h-0.9c-0.7,0-0.9,0.3-0.9,0.6c0,0.4,0.3,0.6,0.8,0.6C136.8,46,137.2,45.7,137.4,45.2z"/>
		<path class="st0" d="M147.8,44.1c0,2-1.3,3.2-3,3.2c-0.8,0-1.4-0.2-1.8-0.7v0.6h-2v-8.4h2.1v2.8c0.4-0.4,1-0.6,1.7-0.6
			C146.4,41,147.8,42.2,147.8,44.1z M145.6,44.1c0-0.9-0.6-1.4-1.3-1.4s-1.3,0.5-1.3,1.4s0.6,1.5,1.3,1.5S145.6,45.1,145.6,44.1z"/>
		<path class="st0" d="M148.8,38.8h2.1v8.4h-2.1V38.8z"/>
		<path class="st0" d="M158.5,44.7H154c0.2,0.6,0.7,1,1.5,1c0.6,0,1-0.2,1.4-0.5l1.1,1.2c-0.6,0.7-1.4,1-2.6,1
			c-2.2,0-3.6-1.3-3.6-3.2c0-1.8,1.4-3.2,3.4-3.2c1.8,0,3.3,1.2,3.3,3.2C158.6,44.3,158.5,44.5,158.5,44.7z M154,43.6h2.5
			c-0.1-0.6-0.6-1.1-1.3-1.1S154.2,42.9,154,43.6z"/>
		<path class="st0" d="M159.2,46c0-0.8,0.6-1.3,1.3-1.3s1.3,0.5,1.3,1.3c0,0.7-0.6,1.3-1.3,1.3C159.7,47.3,159.2,46.8,159.2,46z"/>
	</g>
</g>
</svg>
